<svg xmlns="http://www.w3.org/2000/svg" viewBox="0 0 65 65"><defs><style>.cls-1{fill:#eceef1;opacity:0.75;isolation:isolate;}.cls-2{fill:#135e80;}.cls-3{fill:#2098ce;}</style></defs><title>Requirements</title><g id="Requirements"><path class="cls-1" d="M58.59,58.68c7.4-5.8-.5-37.5-14-37.5s-30.8,17.8-29,31.3S51.19,64.48,58.59,58.68Z"/><path class="cls-2" d="M39.35,23.65H25.55a2.11,2.11,0,0,1-2.1-2.1V16a2.18,2.18,0,0,1,2.1-2.1h2.5a4.86,4.86,0,0,1,8.8,0h2.5a2.11,2.11,0,0,1,2.1,2.1v5.5A2.2,2.2,0,0,1,39.35,23.65Zm-13.8-8.3a.65.65,0,0,0-.6.6v5.5a.65.65,0,0,0,.6.6h13.8a.65.65,0,0,0,.6-.6V16a.65.65,0,0,0-.6-.6h-3.5l-.2-.5a3.48,3.48,0,0,0-3.2-2.2,3.43,3.43,0,0,0-3.2,2.3l-.2.5h-3.5Z"/><path class="cls-3" d="M21.45,17.35v4.1a4.12,4.12,0,0,0,4.1,4.1h13.8a4.12,4.12,0,0,0,4.1-4.1v-4.1h2.8a2.8,2.8,0,0,1,2.8,2.8v31a2.8,2.8,0,0,1-2.8,2.8H18.75a2.88,2.88,0,0,1-2.8-2.9v-31a2.8,2.8,0,0,1,2.8-2.8h2.7Zm10.6,22.4a1.39,1.39,0,0,0-1.9,0l-4.5,4.5-1.8-1.8a1.34,1.34,0,0,0-1.9,1.9l2.8,2.8a1.45,1.45,0,0,0,2,0l5.5-5.5A1.68,1.68,0,0,0,32.05,39.75Zm10,2.3h-5.5a1.4,1.4,0,0,0,0,2.8h5.5a1.4,1.4,0,0,0,0-2.8Zm-10-13.3a1.39,1.39,0,0,0-1.9,0l-4.5,4.5-1.8-1.8a1.34,1.34,0,1,0-1.9,1.9l2.8,2.8a1.45,1.45,0,0,0,2,0l5.5-5.5A1.68,1.68,0,0,0,32.05,28.75Zm10,2.4h-5.5a1.4,1.4,0,1,0,0,2.8h5.5a1.4,1.4,0,1,0,0-2.8Z"/></g></svg>